<?xml version="1.0" encoding="utf-8" standalone="no"?>
<!DOCTYPE svg PUBLIC "-//W3C//DTD SVG 1.1//EN"
  "http://www.w3.org/Graphics/SVG/1.1/DTD/svg11.dtd">
<svg xmlns:xlink="http://www.w3.org/1999/xlink" width="460.8pt" height="345.6pt" viewBox="0 0 460.8 345.6" xmlns="http://www.w3.org/2000/svg" version="1.1">
 <metadata>
  <rdf:RDF xmlns:dc="http://purl.org/dc/elements/1.1/" xmlns:cc="http://creativecommons.org/ns#" xmlns:rdf="http://www.w3.org/1999/02/22-rdf-syntax-ns#">
   <cc:Work>
    <dc:type rdf:resource="http://purl.org/dc/dcmitype/StillImage"/>
    <dc:date>2024-06-19T14:10:01.991636</dc:date>
    <dc:format>image/svg+xml</dc:format>
    <dc:creator>
     <cc:Agent>
      <dc:title>Matplotlib v3.8.0, https://matplotlib.org/</dc:title>
     </cc:Agent>
    </dc:creator>
   </cc:Work>
  </rdf:RDF>
 </metadata>
 <defs>
  <style type="text/css">*{stroke-linejoin: round; stroke-linecap: butt}</style>
 </defs>
 <g id="figure_1">
  <g id="patch_1">
   <path d="M 0 345.6 
L 460.8 345.6 
L 460.8 0 
L 0 0 
z
" style="fill: #ffffff"/>
  </g>
  <g id="axes_1">
   <g id="patch_2">
    <path d="M 15.12 330.48 
L 445.68 330.48 
L 445.68 15.12 
L 15.12 15.12 
z
" style="fill: #ffffff"/>
   </g>
   <g id="matplotlib.axis_1"/>
   <g id="matplotlib.axis_2"/>
   <g id="line2d_1">
    <path d="M 34.690909 172.887881 
L 34.886667 178.52636 
L 34.984546 178.820109 
L 35.082425 178.609877 
L 35.180304 178.740622 
L 35.278183 178.528987 
L 35.376062 178.927508 
L 35.57182 178.69412 
L 35.669699 178.788077 
L 35.767578 178.528171 
L 35.963336 178.698108 
L 36.061215 178.842741 
L 36.159094 178.634055 
L 36.256973 178.858193 
L 36.452731 178.641192 
L 36.55061 178.83981 
L 36.648489 178.547066 
L 36.942126 178.888406 
L 37.040005 178.628949 
L 37.235763 178.760875 
L 37.333643 178.647769 
L 37.431522 178.856084 
L 37.529401 178.637131 
L 37.62728 178.72793 
L 37.725159 178.611761 
L 37.823038 178.945711 
L 37.920917 178.715607 
L 38.018796 178.830913 
L 38.214554 178.503857 
L 38.312433 178.724431 
L 38.410312 178.649464 
L 38.508191 178.780167 
L 38.60607 178.667775 
L 38.703949 178.808225 
L 38.801828 178.598736 
L 38.997586 178.743892 
L 39.095465 178.561512 
L 39.193344 178.747923 
L 39.291223 178.531047 
L 39.389102 178.796285 
L 39.486981 178.605971 
L 39.58486 178.907179 
L 39.682739 178.649252 
L 39.878497 178.756181 
L 39.976376 178.558735 
L 40.074255 178.804048 
L 40.172134 178.601148 
L 40.270013 178.911568 
L 40.367892 178.617966 
L 40.465771 178.962663 
L 40.661529 178.555145 
L 40.759408 178.845555 
L 40.857287 178.595597 
L 41.053045 178.796708 
L 41.150924 178.852692 
L 41.248803 178.585389 
L 41.444561 178.723593 
L 41.54244 178.664384 
L 41.640319 178.809156 
L 41.738198 178.52937 
L 41.836077 178.682927 
L 41.933956 178.58149 
L 42.031835 178.918955 
L 42.129714 178.618742 
L 42.227593 178.757591 
L 42.423351 178.520664 
L 42.52123 178.820611 
L 42.619109 178.60435 
L 42.716988 178.779441 
L 42.814867 178.602102 
L 42.912746 178.882023 
L 43.108504 178.679445 
L 43.206383 178.75666 
L 43.304262 178.479095 
L 43.50002 178.782508 
L 43.597899 178.862208 
L 43.695778 178.531155 
L 43.793658 178.821184 
L 43.891537 178.650791 
L 44.087295 178.874302 
L 44.185174 178.538902 
L 44.283053 178.692011 
L 44.380932 178.525637 
L 44.478811 178.9756 
L 44.57669 178.716691 
L 44.674569 178.899261 
L 44.870327 178.563019 
L 44.968206 178.845515 
L 45.066085 178.618325 
L 45.163964 178.749396 
L 45.261843 178.577532 
L 45.359722 178.780253 
L 45.457601 178.705581 
L 45.55548 178.902049 
L 45.751238 178.493486 
L 45.849117 178.787396 
L 45.946996 178.698022 
L 46.044875 178.788958 
L 46.142754 178.571723 
L 46.240633 178.793958 
L 46.338512 178.608788 
L 46.53427 178.801886 
L 46.632149 178.577565 
L 46.730028 178.67739 
L 46.827907 178.504528 
L 46.925786 178.83947 
L 47.023665 178.697077 
L 47.121544 178.92961 
L 47.219423 178.552709 
L 47.415181 178.805529 
L 47.51306 178.601213 
L 47.610939 178.765462 
L 47.708818 178.55355 
L 47.806697 178.71438 
L 47.904576 178.64012 
L 48.002455 178.928147 
L 48.198213 178.510677 
L 48.296092 178.753487 
L 48.393971 178.570332 
L 48.49185 178.762567 
L 48.589729 178.625057 
L 48.687608 178.806542 
L 48.785487 178.54484 
L 48.883366 178.890145 
L 49.079124 178.638398 
L 49.177003 178.730225 
L 49.274882 178.50699 
L 49.372761 178.846398 
L 49.47064 178.728851 
L 49.568519 178.95078 
L 49.666398 178.663866 
L 49.862156 178.791023 
L 49.960035 178.604821 
L 50.057914 178.870987 
L 50.253673 178.639175 
L 50.351552 178.682177 
L 50.449431 178.92472 
L 50.54731 178.617229 
L 50.645189 178.730823 
L 50.840947 178.498029 
L 50.938826 178.726884 
L 51.036705 178.587975 
L 51.134584 178.719197 
L 51.232463 178.56182 
L 51.330342 178.943601 
L 51.428221 178.63248 
L 51.623979 178.728019 
L 51.721858 178.417949 
L 51.819737 178.729433 
L 51.917616 178.643409 
L 52.015495 178.842341 
L 52.113374 178.696888 
L 52.211253 178.806968 
L 52.407011 178.641856 
L 52.50489 178.851096 
L 52.602769 178.641128 
L 52.896406 178.879357 
L 52.994285 178.648926 
L 53.092164 178.88703 
L 53.287922 178.591667 
L 53.385801 178.792791 
L 53.48368 178.565021 
L 53.777317 178.885249 
L 53.875196 178.615343 
L 53.973075 178.793098 
L 54.168833 178.54961 
L 54.266712 178.72577 
L 54.46247 178.706395 
L 54.560349 178.693454 
L 54.658228 178.831472 
L 54.756107 178.621141 
L 54.951865 178.734311 
L 55.049744 178.622602 
L 55.147623 178.78818 
L 55.245502 178.649679 
L 55.343381 178.804793 
L 55.44126 178.609572 
L 55.539139 178.932342 
L 55.734897 178.641441 
L 55.832776 178.753778 
L 55.930655 178.499525 
L 56.224292 178.820926 
L 56.322171 178.625613 
L 56.42005 178.821961 
L 56.615808 178.61012 
L 56.713688 178.810897 
L 56.811567 178.588183 
L 57.105204 178.824545 
L 57.203083 178.663062 
L 57.398841 178.78089 
L 57.49672 178.586116 
L 57.594599 178.788114 
L 57.692478 178.598865 
L 57.986115 178.949813 
L 58.181873 178.739097 
L 58.279752 178.749006 
L 58.377631 178.559279 
L 58.573389 178.676667 
L 58.671268 178.839193 
L 58.769147 178.678422 
L 58.867026 178.851283 
L 59.062784 178.624311 
L 59.160663 178.790635 
L 59.258542 178.555989 
L 59.552179 178.774939 
L 59.650058 178.665394 
L 59.747937 178.84863 
L 59.943695 178.513563 
L 60.041574 178.79035 
L 60.139453 178.572667 
L 60.237332 178.731167 
L 60.335211 178.586802 
L 60.43309 178.846879 
L 60.530969 178.66253 
L 60.628848 178.805272 
L 60.824606 178.529386 
L 60.922485 178.769517 
L 61.020364 178.632655 
L 61.118243 178.844147 
L 61.216122 178.660714 
L 61.314001 178.861259 
L 61.41188 178.651874 
L 61.607638 178.80157 
L 61.705517 178.604204 
L 61.901275 178.689704 
L 61.999154 178.767862 
L 62.097033 178.650958 
L 62.194912 178.948102 
L 62.39067 178.641031 
L 62.488549 178.737683 
L 62.586428 178.5769 
L 62.684307 178.808352 
L 62.782186 178.593913 
L 62.880065 178.787075 
L 62.977944 178.630764 
L 63.075824 178.877309 
L 63.271582 178.557824 
L 63.369461 178.755355 
L 63.46734 178.589879 
L 63.565219 178.803869 
L 63.663098 178.709027 
L 63.760977 178.77562 
L 63.858856 178.592789 
L 64.054614 178.762284 
L 64.348251 178.609089 
L 64.641888 178.948544 
L 64.837646 178.6496 
L 64.935525 178.693599 
L 65.033404 178.546312 
L 65.131283 178.816303 
L 65.327041 178.688526 
L 65.42492 178.65507 
L 65.522799 178.825385 
L 65.718557 178.69055 
L 65.816436 178.698121 
L 65.914315 178.536668 
L 66.012194 178.788718 
L 66.110073 178.705202 
L 66.207952 178.777648 
L 66.305831 178.613183 
L 66.40371 178.809163 
L 66.599468 178.748296 
L 66.697347 178.808236 
L 66.795226 178.581878 
L 67.088863 178.958664 
L 67.284621 178.766232 
L 67.480379 178.607695 
L 67.578258 178.958659 
L 67.676137 178.663256 
L 67.774016 178.717129 
L 67.871895 178.632967 
L 67.969774 178.791854 
L 68.067653 178.709108 
L 68.165532 178.800417 
L 68.36129 178.474469 
L 68.459169 178.772318 
L 68.557048 178.665054 
L 68.752806 178.670399 
L 68.948564 178.693361 
L 69.144322 178.807514 
L 69.242201 178.55048 
L 69.535839 178.865726 
L 69.829476 178.555184 
L 69.927355 178.673785 
L 70.025234 178.978884 
L 70.123113 178.659067 
L 70.220992 178.75297 
L 70.318871 178.612465 
L 70.612508 178.852694 
L 70.808266 178.623674 
L 70.906145 178.796101 
L 71.004024 178.568744 
L 71.101903 178.733938 
L 71.39554 178.642289 
L 71.493419 178.81553 
L 71.689177 178.632247 
L 71.787056 178.790741 
L 71.884935 178.508245 
L 71.982814 178.918031 
L 72.080693 178.670439 
L 72.178572 178.772394 
L 72.276451 178.600002 
L 72.472209 178.965531 
L 72.570088 178.612763 
L 72.667967 178.832199 
L 72.863725 178.64274 
L 73.059483 178.843648 
L 73.157362 178.686744 
L 73.35312 178.746322 
L 73.450999 178.550693 
L 73.548878 178.75396 
L 73.744636 178.626921 
L 73.842515 178.668135 
L 73.940394 178.861117 
L 74.136152 178.683557 
L 74.234031 178.720363 
L 74.33191 178.531179 
L 74.429789 178.860597 
L 74.527668 178.648216 
L 74.919184 178.803237 
L 75.017063 178.627403 
L 75.114942 178.791198 
L 75.212821 178.556729 
L 75.506458 178.943216 
L 75.604337 178.683416 
L 75.800095 178.755075 
L 75.897974 178.537379 
L 75.995854 178.868919 
L 76.191612 178.603697 
L 76.38737 178.89834 
L 76.485249 178.698092 
L 76.681007 178.76759 
L 76.778886 178.540899 
L 76.876765 178.967737 
L 76.974644 178.598908 
L 77.268281 178.810314 
L 77.464039 178.699907 
L 77.561918 178.722758 
L 77.659797 178.491816 
L 77.757676 178.786791 
L 77.855555 178.63458 
L 77.953434 178.84304 
L 78.051313 178.678309 
L 78.149192 178.739674 
L 78.34495 178.603647 
L 78.442829 178.842238 
L 78.540708 178.609472 
L 78.834345 178.921339 
L 78.932224 178.669457 
L 79.030103 178.866065 
L 79.225861 178.629423 
L 79.32374 178.972734 
L 79.421619 178.511549 
L 79.519498 178.709061 
L 79.617377 178.65999 
L 79.715256 178.826162 
L 79.813135 178.629938 
L 79.911014 178.827533 
L 80.106772 178.535592 
L 80.204651 178.781192 
L 80.30253 178.559116 
L 80.498288 178.706932 
L 80.889804 178.7743 
L 80.987683 178.57717 
L 81.085562 178.740026 
L 81.183441 178.607227 
L 81.379199 178.712965 
L 81.477078 178.867388 
L 81.574957 178.711804 
L 81.770715 178.93478 
L 81.868594 178.614743 
L 82.064352 178.669465 
L 82.357989 178.960046 
L 82.553748 178.654442 
L 82.651627 178.75047 
L 82.749506 178.546945 
L 82.847385 178.786695 
L 83.141022 178.618948 
L 83.238901 178.833865 
L 83.434659 178.586608 
L 83.532538 178.759061 
L 83.630417 178.517808 
L 83.924054 178.832964 
L 84.021933 178.65649 
L 84.217691 178.767423 
L 84.31557 178.655722 
L 84.413449 178.786795 
L 84.511328 178.6029 
L 84.707086 178.721805 
L 84.804965 178.973615 
L 85.000723 178.692973 
L 85.098602 178.747949 
L 85.196481 178.563809 
L 85.29436 178.904129 
L 85.490118 178.585428 
L 85.685876 178.834776 
L 85.783755 178.673485 
L 85.979513 178.732323 
L 86.077392 178.489211 
L 86.175271 178.75713 
L 86.27315 178.663333 
L 86.371029 178.750448 
L 86.468908 178.60301 
L 86.566787 178.811336 
L 86.762545 178.710184 
L 86.860424 178.790033 
L 86.958303 178.549871 
L 87.056182 178.730384 
L 87.154061 178.646812 
L 87.25194 179.008821 
L 87.349819 178.697452 
L 87.447698 178.796289 
L 87.643456 178.656482 
L 87.741335 178.961086 
L 87.839214 178.589479 
L 87.937093 178.727736 
L 88.034972 178.591702 
L 88.132851 178.847215 
L 88.23073 178.691397 
L 88.328609 178.87624 
L 88.524367 178.497614 
L 88.622246 178.781872 
L 88.720125 178.648737 
L 89.013763 178.739473 
L 89.111642 178.656627 
L 89.209521 178.80894 
L 89.601037 178.605994 
L 89.698916 178.798929 
L 89.796795 178.687721 
L 89.894674 178.857023 
L 89.992553 178.673749 
L 90.188311 178.798861 
L 90.28619 178.58515 
L 90.384069 178.731169 
L 90.481948 178.605891 
L 90.775585 178.945343 
L 90.971343 178.694648 
L 91.069222 178.722283 
L 91.167101 178.606233 
L 91.26498 178.762907 
L 91.558617 178.597291 
L 91.656496 178.883128 
L 91.852254 178.600685 
L 91.950133 178.75584 
L 92.048012 178.536835 
L 92.24377 178.723891 
L 92.341649 178.75652 
L 92.439528 178.659253 
L 92.635286 178.777928 
L 92.733165 178.666987 
L 92.831044 178.777688 
L 92.928923 178.572493 
L 93.22256 178.841394 
L 93.320439 178.68422 
L 93.418318 178.782424 
L 93.614076 178.583594 
L 93.711955 178.852667 
L 93.907713 178.677204 
L 94.299229 178.734734 
L 94.397108 178.706724 
L 94.494987 178.557123 
L 94.592866 178.790016 
L 94.886503 178.651896 
L 94.984382 178.850485 
L 95.18014 178.768886 
L 95.27802 178.852552 
L 95.375899 178.503365 
L 95.473778 178.778339 
L 95.571657 178.631243 
L 95.669536 178.78663 
L 95.767415 178.724788 
L 95.865294 178.899605 
L 96.061052 178.666298 
L 96.158931 178.844941 
L 96.25681 178.597376 
L 96.354689 178.738506 
L 96.452568 178.663802 
L 96.550447 178.796755 
L 96.648326 178.61103 
L 96.746205 178.846374 
L 96.941963 178.560487 
L 97.039842 178.807994 
L 97.137721 178.546752 
L 97.2356 178.750971 
L 97.333479 178.62831 
L 97.431358 178.790213 
L 97.529237 178.668995 
L 97.627116 178.817916 
L 97.822874 178.535827 
L 97.920753 178.739461 
L 98.018632 178.593263 
L 98.116511 178.763057 
L 98.21439 178.696491 
L 98.312269 178.903681 
L 98.410148 178.619955 
L 98.508027 178.807678 
L 98.703785 178.609839 
L 98.801664 178.79168 
L 98.899543 178.618104 
L 98.997422 178.722351 
L 99.095301 178.636811 
L 99.19318 178.895598 
L 99.291059 178.668786 
L 99.388938 178.713099 
L 99.976212 178.631126 
L 100.074091 178.985986 
L 100.269849 178.70076 
L 100.367728 178.716432 
L 100.465607 178.504448 
L 100.563486 178.79735 
L 100.661365 178.69017 
L 100.759244 178.825927 
L 100.857123 178.653177 
L 100.955002 178.792415 
L 101.15076 178.617815 
L 101.248639 178.792536 
L 101.346518 178.598118 
L 101.640155 178.845039 
L 101.738035 178.694561 
L 101.835914 178.801478 
L 102.031672 178.647934 
L 102.129551 178.76386 
L 102.22743 178.59773 
L 102.521067 178.83559 
L 102.716825 178.7355 
L 102.912583 178.557831 
L 103.010462 178.769185 
L 103.304099 178.694699 
L 103.597736 178.768636 
L 103.695615 178.794174 
L 103.793494 178.546863 
L 103.891373 178.751322 
L 103.989252 178.683398 
L 104.087131 178.777456 
L 104.18501 178.698672 
L 104.282889 178.86329 
L 104.478647 178.669006 
L 104.576526 178.832923 
L 104.674405 178.525221 
L 104.870163 178.702214 
L 104.968042 178.841744 
L 105.065921 178.651128 
L 105.1638 178.741534 
L 105.359558 178.624262 
L 105.457437 178.872558 
L 105.555316 178.586585 
L 105.653195 178.757552 
L 105.751074 178.606463 
L 106.044711 178.838097 
L 106.14259 178.825169 
L 106.240469 178.499594 
L 106.338348 178.855677 
L 106.436227 178.60195 
L 106.534106 178.79022 
L 106.631985 178.705475 
L 106.729864 178.810353 
L 106.827743 178.681993 
L 107.023501 178.777413 
L 107.12138 178.555033 
L 107.219259 178.722577 
L 107.317138 178.640431 
L 107.415017 178.834939 
L 107.512896 178.628821 
L 107.610775 178.859446 
L 107.708654 178.617032 
L 107.904412 178.852833 
L 108.002291 178.574748 
L 108.10017 178.791521 
L 108.19805 178.577668 
L 108.295929 178.750871 
L 108.393808 178.660312 
L 108.491687 178.885365 
L 108.687445 178.631751 
L 108.785324 178.746881 
L 108.883203 178.559197 
L 109.17684 178.835301 
L 109.274719 178.619996 
L 109.372598 178.974724 
L 109.568356 178.614314 
L 109.666235 178.751204 
L 109.764114 178.615688 
L 109.861993 178.839991 
L 109.959872 178.654078 
L 110.057751 178.849673 
L 110.15563 178.614258 
L 110.351388 178.84204 
L 110.449267 178.623247 
L 110.547146 178.784464 
L 110.645025 178.603006 
L 110.938662 178.905103 
L 111.036541 178.658474 
L 111.13442 178.767158 
L 111.330178 178.556935 
L 111.428057 178.780268 
L 111.525936 178.675979 
L 111.623815 178.760583 
L 111.721694 178.654774 
L 111.819573 178.891837 
L 112.015331 178.66072 
L 112.11321 178.778361 
L 112.211089 178.575098 
L 112.308968 178.798218 
L 112.602605 178.610873 
L 112.700484 178.816878 
L 112.896242 178.735329 
L 112.994121 178.801582 
L 113.092 178.565118 
L 113.385637 178.909017 
L 113.483516 178.671833 
L 113.581395 178.787249 
L 113.777153 178.573972 
L 113.875032 178.889967 
L 113.972911 178.595398 
L 114.266548 178.788154 
L 114.364427 178.67597 
L 114.560186 178.751151 
L 114.658065 178.551169 
L 114.755944 178.792089 
L 114.853823 178.619247 
L 114.951702 178.715383 
L 115.049581 178.617037 
L 115.14746 178.827274 
L 115.343218 178.745862 
L 115.441097 178.810708 
L 115.538976 178.433457 
L 115.636855 178.734571 
L 115.734734 178.660666 
L 115.832613 178.800666 
L 115.930492 178.711322 
L 116.028371 178.868737 
L 116.224129 178.646136 
L 116.322008 178.891287 
L 116.419887 178.58104 
L 116.517766 178.8 
L 116.615645 178.602335 
L 116.713524 178.7753 
L 116.811403 178.651511 
L 116.909282 178.917981 
L 117.10504 178.595663 
L 117.202919 178.814632 
L 117.300798 178.484852 
L 117.398677 178.766209 
L 117.496556 178.586204 
L 117.594435 178.801476 
L 117.692314 178.715625 
L 117.790193 178.894901 
L 117.985951 178.533843 
L 118.08383 178.755371 
L 118.181709 178.552991 
L 118.279588 178.774948 
L 118.377467 178.691685 
L 118.475346 178.875023 
L 118.573225 178.535867 
L 118.768983 178.784098 
L 118.866862 178.617998 
L 118.964741 178.827111 
L 119.06262 178.589074 
L 119.356257 178.943579 
L 119.454136 178.683958 
L 119.552015 178.73472 
L 119.649894 178.715934 
L 119.747773 178.529332 
L 119.845652 178.745412 
L 119.943531 178.630181 
L 120.04141 178.722079 
L 120.139289 178.637751 
L 120.237168 178.94155 
L 120.335047 178.601683 
L 120.530805 178.716943 
L 120.628684 178.509685 
L 120.726563 178.806961 
L 120.824442 178.672686 
L 120.922321 178.762895 
L 121.020201 178.536202 
L 121.11808 178.809683 
L 121.313838 178.68427 
L 121.411717 178.792049 
L 121.509596 178.558216 
L 121.803233 178.857972 
L 121.901112 178.629749 
L 121.998991 178.865612 
L 122.194749 178.668295 
L 122.292628 178.844163 
L 122.390507 178.665383 
L 122.684144 178.902752 
L 122.782023 178.617722 
L 122.977781 178.77585 
L 123.07566 178.589781 
L 123.173539 178.810068 
L 123.369297 178.668939 
L 123.467176 178.638258 
L 123.565055 178.804425 
L 123.662934 178.696249 
L 123.760813 178.829166 
L 123.858692 178.765046 
L 123.956571 178.566844 
L 124.152329 178.687613 
L 124.250208 178.778128 
L 124.348087 178.661238 
L 124.445966 178.879958 
L 124.641724 178.64743 
L 124.739603 178.789157 
L 124.837482 178.602729 
L 124.935361 178.73298 
L 125.03324 178.646019 
L 125.131119 178.851069 
L 125.228998 178.70445 
L 125.326877 178.868038 
L 125.522635 178.666835 
L 125.620514 178.873142 
L 125.718393 178.576403 
L 125.816272 178.686682 
L 125.914151 178.586694 
L 126.01203 178.838263 
L 126.109909 178.696817 
L 126.305667 178.803169 
L 126.403546 178.510383 
L 126.501425 178.827736 
L 126.599304 178.573809 
L 126.892941 178.808898 
L 126.99082 178.609638 
L 127.186578 178.798915 
L 127.284457 178.567603 
L 127.382336 178.819793 
L 127.480216 178.63143 
L 127.578095 178.831443 
L 127.675974 178.65015 
L 127.773853 178.874917 
L 127.871732 178.675003 
L 128.06749 178.830422 
L 128.165369 178.556139 
L 128.263248 178.844508 
L 128.361127 178.614263 
L 128.459006 178.769988 
L 128.556885 178.676152 
L 128.654764 178.965632 
L 128.850522 178.618205 
L 128.948401 178.79329 
L 129.04628 178.596382 
L 129.144159 178.782336 
L 129.242038 178.585596 
L 129.339917 178.837418 
L 129.437796 178.533501 
L 129.535675 178.924964 
L 129.731433 178.592481 
L 129.829312 178.838079 
L 129.927191 178.513181 
L 130.02507 178.796134 
L 130.122949 178.555883 
L 130.220828 178.847809 
L 130.318707 178.559268 
L 130.416586 178.836056 
L 130.612344 178.68538 
L 130.710223 178.799047 
L 130.808102 178.532021 
L 131.101739 178.908877 
L 131.199618 178.643848 
L 131.297497 178.819816 
L 131.493255 178.613564 
L 131.591134 178.839345 
L 131.689013 178.636896 
L 131.786892 178.700911 
L 131.884771 178.57654 
L 131.98265 178.893106 
L 132.080529 178.659485 
L 132.276287 178.755327 
L 132.374166 178.587912 
L 132.863561 166.768239 
L 132.96144 167.142038 
L 133.157198 167.032188 
L 133.255077 167.339051 
L 133.352956 166.99457 
L 133.450835 167.095015 
L 133.548714 166.942681 
L 133.646593 167.162275 
L 133.744472 166.548598 
L 133.842351 167.238475 
L 133.940231 166.879632 
L 134.135989 167.100246 
L 134.233868 166.954248 
L 134.331747 167.363777 
L 134.429626 166.898953 
L 134.527505 167.191632 
L 134.625384 166.885908 
L 134.723263 167.204242 
L 134.919021 166.872667 
L 135.0169 167.237798 
L 135.114779 167.077755 
L 135.212658 167.245671 
L 135.310537 167.076532 
L 135.408416 167.169265 
L 135.506295 166.408771 
L 135.604174 167.186533 
L 135.702053 167.041433 
L 135.897811 167.242925 
L 135.99569 167.013631 
L 136.289327 167.30184 
L 136.387206 166.99512 
L 136.485085 167.220982 
L 136.582964 166.74516 
L 136.778722 167.358161 
L 136.876601 167.084055 
L 136.97448 167.244647 
L 137.072359 166.883698 
L 137.170238 166.982838 
L 137.268117 166.859321 
L 137.365996 167.108341 
L 137.463875 166.870679 
L 137.561754 167.106077 
L 137.757512 166.945904 
L 137.855391 167.249775 
L 137.95327 166.822887 
L 138.051149 167.247044 
L 138.149028 166.723595 
L 138.246907 167.161261 
L 138.344786 166.915822 
L 138.442665 167.112746 
L 138.540544 167.013937 
L 138.93206 167.141184 
L 139.029939 166.975262 
L 139.225697 167.21171 
L 139.323576 167.124348 
L 139.421455 167.253768 
L 139.519334 167.064489 
L 139.617213 167.237022 
L 139.715092 167.104135 
L 139.812971 167.291001 
L 139.91085 167.041527 
L 140.008729 167.200275 
L 140.106608 166.848255 
L 140.204487 167.106874 
L 140.400246 166.845244 
L 140.498125 167.324757 
L 140.596004 166.990146 
L 140.693883 167.134379 
L 140.791762 166.964035 
L 140.889641 167.075893 
L 140.98752 166.254023 
L 141.085399 167.176683 
L 141.183278 167.077805 
L 141.379036 167.148941 
L 141.476915 166.933847 
L 141.574794 167.053334 
L 141.672673 166.941163 
L 141.770552 167.287086 
L 141.868431 167.005128 
L 141.96631 167.053965 
L 142.064189 166.908322 
L 142.162068 167.026349 
L 142.259947 167.609731 
L 142.357826 167.154759 
L 142.455705 167.274409 
L 142.553584 166.849947 
L 142.651463 167.131188 
L 142.749342 167.007352 
L 142.9451 167.231728 
L 143.042979 167.043664 
L 143.140858 167.151119 
L 143.238737 167.034288 
L 143.336616 167.314835 
L 143.434495 166.674381 
L 143.532374 167.257838 
L 143.630253 166.666636 
L 143.728132 167.192629 
L 143.92389 166.957695 
L 144.021769 167.142695 
L 144.119648 166.912571 
L 144.217527 167.163893 
L 144.413285 167.12446 
L 144.511164 166.678455 
L 144.609043 167.114615 
L 144.706922 167.078739 
L 144.804801 167.073706 
L 144.90268 167.304277 
L 145.000559 166.979105 
L 145.098438 167.201078 
L 145.196317 167.007484 
L 145.294196 167.15176 
L 145.392075 166.795314 
L 145.489954 167.278506 
L 145.587833 166.890339 
L 145.783591 167.177272 
L 145.88147 167.038239 
L 145.979349 167.43781 
L 146.077228 166.842059 
L 146.175107 167.202576 
L 146.272986 166.756179 
L 146.370865 167.112904 
L 146.468744 166.997318 
L 146.664502 167.320639 
L 146.95814 166.92306 
L 147.056019 167.189304 
L 147.153898 166.771991 
L 147.251777 167.209216 
L 147.447535 167.006618 
L 147.643293 167.038955 
L 147.741172 167.362675 
L 147.839051 166.943625 
L 147.93693 167.063132 
L 148.034809 166.803871 
L 148.132688 167.172175 
L 148.230567 166.99642 
L 148.426325 167.202495 
L 148.524204 166.996638 
L 148.622083 167.193626 
L 148.719962 167.043253 
L 148.817841 167.215396 
L 148.91572 166.599692 
L 149.013599 167.195841 
L 149.111478 167.050086 
L 149.307236 167.101019 
L 149.405115 166.934371 
L 149.502994 167.225658 
L 149.600873 167.059988 
L 149.698752 167.150052 
L 149.796631 167.052583 
L 149.89451 167.128597 
L 149.992389 166.654451 
L 150.188147 167.376351 
L 150.286026 167.045733 
L 150.383905 167.36571 
L 150.481784 166.9679 
L 150.579663 167.067292 
L 150.677542 166.903204 
L 150.775421 167.132122 
L 150.8733 166.936745 
L 150.971179 167.127763 
L 151.166937 166.940879 
L 151.264816 167.336848 
L 151.362695 167.009366 
L 151.460574 167.224023 
L 151.558453 166.907846 
L 151.656332 167.122484 
L 151.754211 166.858678 
L 151.949969 167.263221 
L 152.047848 166.998502 
L 152.145727 167.37992 
L 152.243606 167.055549 
L 152.341485 167.154112 
L 152.439364 166.704532 
L 152.537243 167.177838 
L 152.635122 167.105825 
L 152.733001 167.041325 
L 152.83088 167.199619 
L 152.928759 166.978889 
L 153.026638 167.206261 
L 153.124517 166.96987 
L 153.222397 167.319361 
L 153.320276 166.374135 
L 153.418155 167.20257 
L 153.516034 166.743322 
L 153.711792 167.277211 
L 153.809671 166.865093 
L 153.90755 167.260935 
L 154.005429 167.047539 
L 154.103308 167.155616 
L 154.201187 166.872672 
L 154.299066 167.089352 
L 154.396945 166.764783 
L 154.592703 167.381413 
L 154.690582 167.08483 
L 154.788461 167.316823 
L 154.88634 166.772005 
L 154.984219 167.257425 
L 155.082098 167.099473 
L 155.277856 167.087135 
L 155.571493 167.116451 
L 155.669372 167.459352 
L 155.767251 166.920913 
L 155.86513 167.287748 
L 155.963009 166.648909 
L 156.060888 167.080062 
L 156.158767 167.046197 
L 156.354525 167.072849 
L 156.452404 166.961702 
L 156.550283 167.128157 
L 156.648162 167.013643 
L 156.746041 167.275646 
L 156.84392 166.405667 
L 156.941799 167.175385 
L 157.039678 166.771322 
L 157.137557 167.18784 
L 157.333315 166.898006 
L 157.431194 167.20834 
L 157.529073 166.749772 
L 157.626952 167.327891 
L 157.82271 167.080197 
L 157.920589 166.408834 
L 158.116347 167.294021 
L 158.214226 167.052964 
L 158.312105 167.413856 
L 158.409984 166.997029 
L 158.605742 167.219228 
L 158.703621 167.119766 
L 158.8015 166.71876 
L 158.899379 167.172413 
L 159.095137 167.023839 
L 159.193016 167.560568 
L 159.290895 166.993297 
L 159.388774 167.314987 
L 159.486653 166.883557 
L 159.584532 167.111716 
L 159.682412 166.640823 
L 159.87817 167.051275 
L 159.976049 166.731879 
L 160.073928 167.502176 
L 160.171807 166.985476 
L 160.269686 167.151793 
L 160.367565 166.520915 
L 160.465444 167.128358 
L 160.563323 166.667134 
L 160.759081 167.177501 
L 160.85696 166.961103 
L 160.954839 167.295674 
L 161.052718 167.0831 
L 161.150597 167.305329 
L 161.248476 166.865637 
L 161.346355 167.141369 
L 161.444234 166.664259 
L 161.639992 167.412914 
L 161.737871 167.037556 
L 161.83575 167.404933 
L 161.933629 166.947863 
L 162.031508 167.360491 
L 162.129387 167.000964 
L 162.227266 167.186921 
L 162.325145 166.57472 
L 162.520903 167.287753 
L 162.618782 167.110656 
L 162.716661 167.415483 
L 162.81454 166.651139 
L 162.912419 167.348694 
L 163.010298 166.725425 
L 163.108177 167.148993 
L 163.206056 166.887237 
L 163.303935 167.084155 
L 163.401814 166.658221 
L 163.597572 167.32368 
L 163.695451 167.092964 
L 163.79333 167.33022 
L 163.891209 166.727654 
L 164.086967 167.119319 
L 164.576362 166.991238 
L 164.674241 167.525545 
L 164.77212 166.817307 
L 164.869999 167.149088 
L 164.967878 166.673036 
L 165.065757 167.171372 
L 165.163636 167.000457 
L 165.261515 167.080805 
L 165.359394 167.324907 
L 165.457273 166.597946 
L 165.555152 167.53563 
L 165.848789 166.434517 
L 165.946668 167.253611 
L 166.044548 166.865034 
L 166.240306 167.337714 
L 166.338185 166.931167 
L 166.436064 167.340172 
L 166.533943 167.076673 
L 166.631822 167.164841 
L 166.729701 166.73688 
L 166.82758 167.045574 
L 166.925459 166.776441 
L 167.121217 167.407612 
L 167.219096 166.732302 
L 167.316975 167.415551 
L 167.414854 166.950837 
L 167.512733 167.185015 
L 167.610612 166.891081 
L 167.708491 167.104454 
L 167.80637 166.728344 
L 168.002128 167.48112 
L 168.100007 167.142494 
L 168.197886 167.434387 
L 168.295765 166.812371 
L 168.393644 167.232203 
L 168.491523 166.809284 
L 168.589402 167.091419 
L 168.687281 166.952181 
L 168.883039 167.137242 
L 168.980918 167.065072 
L 169.078797 167.434453 
L 169.176676 166.971103 
L 169.274555 167.317105 
L 169.372434 166.470239 
L 169.470313 167.075932 
L 169.568192 167.005927 
L 169.666071 167.008641 
L 169.76395 167.370218 
L 169.861829 166.863968 
L 169.959708 167.336374 
L 170.057587 167.086014 
L 170.155466 167.352772 
L 170.253345 166.465617 
L 170.351224 167.048871 
L 170.449103 166.775048 
L 170.644861 167.358095 
L 170.74274 166.898899 
L 170.840619 167.399711 
L 170.938498 166.792504 
L 171.036377 167.400674 
L 171.232135 167.082755 
L 171.330014 166.555978 
L 171.525772 167.274707 
L 171.623651 166.995551 
L 171.72153 167.487735 
L 171.819409 166.897529 
L 171.917288 167.381103 
L 172.210925 166.618753 
L 172.308804 167.116179 
L 172.406683 167.058912 
L 172.504563 167.067565 
L 172.602442 167.427061 
L 172.700321 166.616737 
L 172.7982 167.333576 
L 172.896079 166.764511 
L 172.993958 167.123482 
L 173.091837 166.638545 
L 173.189716 167.006768 
L 173.287595 166.96063 
L 173.385474 166.787452 
L 173.483353 167.56215 
L 173.581232 167.109201 
L 173.679111 167.322218 
L 173.77699 166.768533 
L 173.874869 167.11508 
L 173.972748 166.783709 
L 174.168506 167.249864 
L 174.266385 166.956471 
L 174.364264 167.35942 
L 174.462143 167.076618 
L 174.560022 167.327297 
L 174.657901 166.982194 
L 174.75578 167.158772 
L 174.853659 166.484711 
L 175.049417 167.365497 
L 175.147296 166.898402 
L 175.245175 167.439548 
L 175.343054 166.804284 
L 175.440933 167.27419 
L 175.538812 167.093163 
L 175.636691 167.157427 
L 175.73457 166.283031 
L 175.930328 167.214561 
L 176.028207 167.120202 
L 176.126086 167.414704 
L 176.223965 166.750511 
L 176.321844 167.23243 
L 176.419723 166.876184 
L 176.517602 167.145083 
L 176.811239 166.748188 
L 177.006997 167.405131 
L 177.104876 166.941989 
L 177.202755 167.350167 
L 177.300634 166.647155 
L 177.398513 167.160676 
L 177.496392 167.081311 
L 177.594271 167.031284 
L 177.69215 166.83796 
L 178.083666 167.434185 
L 178.181545 166.677691 
L 178.279424 167.193304 
L 178.377303 166.941359 
L 178.573061 167.136706 
L 178.67094 167.080308 
L 178.768819 167.24574 
L 178.866698 166.804305 
L 178.964578 167.470241 
L 179.258215 166.54414 
L 179.453973 167.083764 
L 179.551852 167.114843 
L 179.649731 167.322331 
L 179.74761 166.84701 
L 179.845489 167.303422 
L 179.943368 167.07054 
L 180.041247 167.226164 
L 180.139126 166.829838 
L 180.237005 167.073921 
L 180.334884 166.537583 
L 180.530642 167.427309 
L 180.628521 166.951034 
L 180.7264 167.410116 
L 180.824279 166.84438 
L 180.922158 167.212077 
L 181.117916 167.132141 
L 181.215795 166.371499 
L 181.411553 167.320961 
L 181.509432 167.092876 
L 181.607311 167.525786 
L 181.70519 166.890641 
L 181.803069 167.215015 
L 181.900948 166.939781 
L 181.998827 167.113842 
L 182.096706 166.826524 
L 182.292464 167.023342 
L 182.390343 166.969552 
L 182.488222 167.46032 
L 182.586101 166.966964 
L 182.68398 167.227423 
L 182.781859 166.757669 
L 182.879738 167.083783 
L 182.977617 166.909649 
L 183.173375 167.164856 
L 183.271254 166.922948 
L 183.369133 167.351821 
L 183.467012 167.04184 
L 183.564891 167.370695 
L 183.66277 166.777795 
L 183.760649 167.164888 
L 183.858528 166.762079 
L 184.054286 167.311217 
L 184.152165 167.019364 
L 184.250044 167.339369 
L 184.347923 166.984119 
L 184.445802 167.258303 
L 184.543681 167.006126 
L 184.64156 167.179643 
L 184.739439 166.502611 
L 184.935197 167.181766 
L 185.033076 167.046416 
L 185.130955 167.309292 
L 185.228834 166.876566 
L 185.326713 167.259683 
L 185.620351 166.661537 
L 185.71823 167.078008 
L 185.816109 167.043998 
L 185.913988 167.048804 
L 186.011867 167.320075 
L 186.109746 166.795065 
L 186.207625 167.295528 
L 186.305504 166.752675 
L 186.403383 167.034426 
L 186.501262 166.87692 
L 186.69702 167.029149 
L 186.794899 167.008498 
L 186.892778 167.265783 
L 186.990657 167.099116 
L 187.088536 167.385756 
L 187.186415 166.818399 
L 187.284294 167.160823 
L 187.382173 166.983802 
L 187.480052 167.176576 
L 187.67581 167.012649 
L 187.773689 167.27204 
L 187.871568 166.948419 
L 187.969447 167.306948 
L 188.067326 167.011661 
L 188.165205 167.078399 
L 188.263084 166.627391 
L 188.360963 167.229839 
L 188.556721 167.035921 
L 188.6546 167.233854 
L 188.752479 166.709157 
L 188.850358 167.305616 
L 189.046116 167.093152 
L 189.143995 166.479359 
L 189.241874 167.141836 
L 189.339753 166.994802 
L 189.535511 167.230665 
L 189.63339 166.977526 
L 189.731269 167.211909 
L 189.927027 167.1228 
L 190.024906 166.750876 
L 190.122785 167.028185 
L 190.220664 166.7251 
L 190.416422 167.193848 
L 190.514301 167.043053 
L 190.61218 167.189276 
L 190.710059 166.956066 
L 190.905817 167.117716 
L 191.003696 167.118573 
L 191.101575 166.860978 
L 191.297333 167.172655 
L 191.395212 167.05273 
L 191.493091 167.269016 
L 191.59097 166.996063 
L 191.688849 167.051699 
L 191.786729 166.830905 
L 191.982487 167.149918 
L 192.276124 166.984322 
L 192.374003 167.181137 
L 192.471882 167.014133 
L 192.569761 167.120487 
L 192.66764 166.715677 
L 192.765519 167.114203 
L 192.863398 167.011767 
L 193.059156 167.144965 
L 193.157035 167.012044 
L 193.254914 167.157402 
L 193.352793 167.065035 
L 193.450672 167.137346 
L 193.548551 167.045609 
L 193.64643 167.125985 
L 193.744309 166.718214 
L 193.940067 167.140822 
L 194.037946 167.053761 
L 194.135825 167.148074 
L 194.233704 166.94098 
L 194.429462 167.188822 
L 194.527341 167.158801 
L 194.62522 166.882404 
L 194.723099 167.056562 
L 194.820978 166.987853 
L 194.918857 167.066457 
L 195.016736 167.300097 
L 195.114615 166.96723 
L 195.408252 167.118561 
L 195.799768 167.025494 
L 195.897647 167.229297 
L 195.995526 167.062974 
L 196.093405 167.132759 
L 196.191284 166.870595 
L 196.289163 167.143795 
L 196.484921 167.06636 
L 196.680679 166.888981 
L 196.778558 167.233861 
L 196.876437 167.047961 
L 196.974316 167.162019 
L 197.072195 167.012846 
L 197.170074 167.133917 
L 197.267953 166.872446 
L 197.463711 167.038477 
L 197.56159 166.979714 
L 197.659469 167.156871 
L 197.757348 166.980825 
L 197.953106 167.121424 
L 198.050985 167.155274 
L 198.148864 166.863177 
L 198.246744 167.134253 
L 198.442502 167.032118 
L 198.540381 167.266542 
L 198.63826 166.958901 
L 198.736139 167.153967 
L 198.834018 167.081239 
L 198.931897 167.1754 
L 199.029776 166.95027 
L 199.127655 167.112271 
L 199.225534 166.965951 
L 199.421292 167.207681 
L 199.519171 167.033781 
L 199.61705 167.157648 
L 199.714929 166.881657 
L 199.812808 167.136079 
L 199.910687 166.909368 
L 200.008566 167.159924 
L 200.204324 166.981112 
L 200.302203 167.155169 
L 200.400082 166.965521 
L 200.497961 167.206125 
L 200.791598 166.88485 
L 200.889477 167.159986 
L 201.085235 167.027556 
L 201.183114 167.097579 
L 201.280993 166.917609 
L 201.378872 167.20263 
L 201.476751 167.107581 
L 201.57463 167.167493 
L 201.672509 166.887869 
L 201.770388 167.135449 
L 201.868267 166.904179 
L 202.064025 167.128582 
L 202.161904 166.940649 
L 202.259783 167.140994 
L 202.357662 167.038658 
L 202.455541 167.193379 
L 202.55342 166.949874 
L 202.651299 167.146048 
L 202.749178 166.880101 
L 202.944936 167.108266 
L 203.238573 167.057572 
L 203.336452 167.12853 
L 203.434331 166.85685 
L 203.53221 167.212552 
L 203.630089 166.859762 
L 203.825847 167.159206 
L 203.923726 166.98994 
L 204.119484 167.073054 
L 204.217363 167.115786 
L 204.315242 166.982912 
L 204.413121 167.150937 
L 204.511 166.862786 
L 204.706759 167.113937 
L 204.804638 167.071783 
L 204.902517 167.233086 
L 205.196154 167.053577 
L 205.294033 167.201097 
L 205.391912 166.905121 
L 205.58767 167.117371 
L 205.685549 166.989578 
L 205.783428 167.195628 
L 206.077065 166.98435 
L 206.174944 167.106158 
L 206.272823 166.911793 
L 206.468581 167.105709 
L 206.56646 166.958091 
L 206.762218 167.085187 
L 206.860097 167.149474 
L 206.957976 167.016011 
L 207.055855 167.122874 
L 207.153734 166.787571 
L 207.349492 167.09872 
L 207.447371 167.035795 
L 207.54525 167.17679 
L 207.643129 166.9609 
L 207.936766 167.221185 
L 208.034645 166.930081 
L 208.230403 167.030135 
L 208.328282 167.021512 
L 208.426161 167.191492 
L 208.719798 166.969081 
L 208.817677 167.202591 
L 208.915556 167.000715 
L 209.013435 167.155714 
L 209.209193 166.970214 
L 209.307072 167.150901 
L 209.600709 166.96246 
L 209.698588 167.152715 
L 209.796467 166.885625 
L 209.992225 167.099524 
L 210.090104 166.978906 
L 210.187983 167.160631 
L 210.48162 167.032661 
L 210.579499 167.134374 
L 210.677378 166.834772 
L 210.775257 167.083536 
L 210.971015 166.990073 
L 211.068894 167.211191 
L 211.166774 167.052488 
L 211.264653 167.191013 
L 211.362532 167.036405 
L 211.460411 167.160988 
L 211.55829 166.903322 
L 211.656169 167.125576 
L 211.851927 167.049947 
L 211.949806 167.221878 
L 212.047685 166.98296 
L 212.145564 167.175249 
L 212.243443 167.031324 
L 212.341322 167.1959 
L 212.439201 166.878673 
L 212.53708 167.136456 
L 212.732838 166.984908 
L 212.830717 167.129405 
L 212.928596 167.007214 
L 213.026475 167.108785 
L 213.124354 166.89708 
L 213.222233 167.178722 
L 213.320112 166.878223 
L 213.417991 167.210385 
L 213.613749 166.921872 
L 213.711628 167.12028 
L 213.809507 167.022135 
L 213.907386 167.171437 
L 214.201023 166.856064 
L 214.298902 167.189107 
L 214.49466 167.033357 
L 214.592539 167.098499 
L 214.690418 166.998962 
L 214.886176 167.167027 
L 214.984055 167.204069 
L 215.081934 166.862917 
L 215.179813 167.129815 
L 215.277692 167.002283 
L 215.47345 167.188099 
L 215.571329 167.006552 
L 215.864966 167.151825 
L 215.962845 166.966929 
L 216.060724 167.090581 
L 216.158603 166.874141 
L 216.550119 167.164808 
L 216.843756 166.884783 
L 216.941635 167.232006 
L 217.039514 166.940366 
L 217.137393 166.974729 
L 217.235272 167.159197 
L 217.333151 166.926801 
L 217.43103 167.186241 
L 217.52891 167.102631 
L 217.626789 167.173454 
L 217.724668 166.965234 
L 217.822547 167.170141 
L 217.920426 166.946059 
L 218.116184 167.127681 
L 218.214063 166.995595 
L 218.311942 167.204916 
L 218.409821 167.071978 
L 218.5077 167.204608 
L 218.605579 166.966033 
L 218.703458 167.226178 
L 218.801337 166.913682 
L 218.997095 167.114833 
L 219.094974 166.97864 
L 219.192853 167.135476 
L 219.290732 166.97678 
L 219.388611 167.185914 
L 219.48649 166.945451 
L 219.584369 167.140475 
L 219.682248 166.92003 
L 219.878006 167.118752 
L 219.975885 166.990688 
L 220.073764 167.163357 
L 220.171643 167.094113 
L 220.269522 167.163925 
L 220.367401 166.967546 
L 220.46528 167.123405 
L 220.563159 166.794326 
L 220.758917 167.187731 
L 220.856796 167.033934 
L 220.954675 167.210016 
L 221.052554 166.978108 
L 221.346191 167.309057 
L 221.44407 166.925892 
L 221.639828 167.065727 
L 221.737707 167.033562 
L 221.835586 167.224739 
L 222.129223 166.90712 
L 222.227102 167.233869 
L 222.324981 166.929403 
L 222.42286 167.148985 
L 222.618618 166.938796 
L 222.716497 167.192878 
L 222.814376 167.022714 
L 222.912255 167.131927 
L 223.010134 166.974732 
L 223.108013 167.228794 
L 223.205892 166.843684 
L 223.303771 167.123856 
L 223.40165 167.080568 
L 223.499529 166.952258 
L 223.597408 167.214114 
L 223.793166 167.129237 
L 223.891045 167.033855 
L 223.988925 167.229193 
L 224.086804 166.838469 
L 224.184683 167.171024 
L 224.282562 166.98337 
L 224.674078 167.172587 
L 224.771957 167.006127 
L 224.869836 167.198106 
L 224.967715 166.920082 
L 225.065594 167.159944 
L 225.261352 167.046385 
L 225.359231 167.112133 
L 225.45711 167.017823 
L 225.750747 167.151031 
L 225.848626 166.781698 
L 225.946505 167.091553 
L 226.044384 166.989955 
L 226.240142 167.133246 
L 226.533779 166.884974 
L 226.631658 167.207925 
L 226.729537 166.893134 
L 226.827416 167.187893 
L 227.023174 166.95436 
L 227.218932 167.106174 
L 227.41469 167.094775 
L 227.512569 167.079548 
L 227.610448 166.905776 
L 227.708327 167.201241 
L 227.904085 167.063436 
L 228.099843 167.005069 
L 228.197722 167.259282 
L 228.491359 166.854645 
L 228.589238 167.097759 
L 228.784996 167.072367 
L 228.882875 167.15401 
L 228.980754 166.919642 
L 229.274391 167.251019 
L 229.37227 166.924724 
L 229.470149 167.012749 
L 229.568028 166.84515 
L 229.763786 167.178986 
L 229.861665 167.012886 
L 229.959544 167.160027 
L 230.057423 167.027614 
L 230.253181 172.887101 
L 230.644698 172.887881 
L 231.721367 172.971788 
L 231.819246 173.055016 
L 232.015004 173.784411 
L 232.504399 177.977348 
L 232.993794 184.146124 
L 233.581068 191.718147 
L 234.070463 199.403965 
L 234.755616 210.513278 
L 236.713196 245.511574 
L 237.39835 258.806667 
L 237.691987 263.357853 
L 238.279261 274.441346 
L 238.670777 280.85747 
L 239.062293 287.212994 
L 239.258051 289.598425 
L 239.747446 296.662525 
L 240.921994 309.516098 
L 241.900784 315.365339 
L 241.998663 315.362798 
L 242.390179 316.145455 
L 242.488058 316.071008 
L 242.585937 315.814971 
L 242.879574 316.009789 
L 243.075332 315.656935 
L 243.173211 315.46243 
L 243.36897 315.785711 
L 243.760486 315.364084 
L 243.956244 315.542851 
L 244.054123 315.500736 
L 244.249881 315.183916 
L 244.445639 315.520547 
L 244.837155 315.25394 
L 245.032913 315.462218 
L 245.130792 315.425271 
L 245.32655 315.105673 
L 245.522308 315.416735 
L 245.718066 315.324838 
L 245.815945 315.13157 
L 246.207461 315.385157 
L 246.403219 315.080629 
L 246.696856 315.383237 
L 246.990493 315.138871 
L 247.186251 315.452777 
L 247.479888 315.109882 
L 247.577767 315.175512 
L 247.675646 315.413494 
L 248.067162 315.081313 
L 248.26292 315.441107 
L 248.556557 315.09303 
L 248.752315 315.396652 
L 249.143831 315.15106 
L 249.339589 315.438089 
L 249.633226 315.145362 
L 249.828985 315.407373 
L 250.220501 315.16052 
L 250.416259 315.477977 
L 250.709896 315.193296 
L 250.807775 315.204613 
L 251.003533 315.318698 
L 251.199291 315.221024 
L 251.29717 315.174679 
L 251.492928 315.462038 
L 251.688686 315.260735 
L 251.884444 315.145051 
L 251.982323 315.398814 
L 252.178081 315.143885 
L 252.471718 315.348652 
L 252.569597 315.490156 
L 252.765355 315.234033 
L 252.961113 315.173646 
L 253.058992 315.373659 
L 253.352629 315.161279 
L 253.450508 315.143084 
L 253.646266 315.414413 
L 253.939903 315.194763 
L 254.23354 315.242066 
L 254.429298 315.141867 
L 254.527177 315.143607 
L 254.722935 315.454436 
L 254.918693 315.214049 
L 255.016572 315.212479 
L 255.114451 314.76 
L 255.310209 315.114597 
L 255.408088 315.078246 
L 255.505967 315.193247 
L 255.603846 315.089919 
L 255.799604 315.49762 
L 255.897483 315.245192 
L 255.995362 315.296842 
L 256.191121 315.154431 
L 256.289 315.39915 
L 256.484758 315.174964 
L 256.582637 315.202234 
L 256.680516 315.111222 
L 256.876274 315.408227 
L 257.072032 315.259909 
L 257.26779 315.171511 
L 257.365669 315.341311 
L 257.561427 315.128942 
L 257.855064 315.355395 
L 257.952943 315.45465 
L 258.148701 315.265639 
L 258.344459 315.129842 
L 258.442338 315.345681 
L 258.638096 315.181344 
L 258.735975 315.253548 
L 258.833854 315.123736 
L 259.029612 315.455557 
L 259.127491 315.24046 
L 259.22537 315.342036 
L 259.421128 315.195574 
L 259.519007 315.411057 
L 259.714765 315.104357 
L 259.812644 315.190833 
L 259.910523 315.078798 
L 260.106281 315.452378 
L 260.20416 315.227173 
L 260.302039 315.323586 
L 260.497797 315.20783 
L 260.595676 315.422675 
L 260.693555 315.16089 
L 260.889313 315.197479 
L 260.987192 315.083988 
L 261.18295 315.425044 
L 261.476587 315.203089 
L 261.574466 315.191896 
L 261.672345 315.358422 
L 261.868103 315.193408 
L 262.063861 315.096286 
L 262.259619 315.436629 
L 262.553256 315.237575 
L 262.651136 315.221617 
L 262.749015 315.410852 
L 262.944773 315.182025 
L 263.042652 315.232813 
L 263.140531 315.08096 
L 263.336289 315.453434 
L 263.434168 315.283328 
L 263.532047 315.405695 
L 263.727805 315.251275 
L 263.825684 315.336089 
L 263.923563 315.096892 
L 264.119321 315.150446 
L 264.2172 315.095839 
L 264.315079 315.489081 
L 264.510837 315.279855 
L 264.608716 315.334351 
L 264.706595 315.147768 
L 264.902353 315.364086 
L 265.000232 315.124057 
L 265.098111 315.248408 
L 265.293869 315.131383 
L 265.391748 315.419445 
L 265.783264 315.172943 
L 265.881143 315.288838 
L 266.272659 315.113861 
L 266.370538 315.190044 
L 266.468417 315.418799 
L 266.859933 315.193542 
L 266.957812 315.332407 
L 267.349328 315.132953 
L 267.447207 315.211228 
L 267.545086 315.498027 
L 267.740844 315.392696 
L 268.230239 315.160648 
L 268.328118 315.26792 
L 268.425997 315.159958 
L 268.621755 315.460236 
L 268.719634 315.318638 
L 268.817513 315.416179 
L 269.013271 315.24592 
L 269.111151 315.364085 
L 269.306909 315.196835 
L 269.404788 315.231266 
L 269.502667 315.050045 
L 269.698425 315.397874 
L 269.796304 315.262542 
L 269.894183 315.443038 
L 269.992062 315.222532 
L 270.18782 315.394442 
L 270.481457 314.892201 
L 270.579336 314.90432 
L 270.775094 315.250067 
L 270.970852 315.344168 
L 271.068731 315.21109 
L 271.264489 315.334871 
L 271.753884 315.223015 
L 272.341158 315.361563 
L 272.732674 315.0727 
L 272.928432 315.246037 
L 273.026311 315.207534 
L 273.12419 315.334606 
L 273.222069 315.232969 
L 273.417827 315.446646 
L 273.711464 315.172646 
L 273.809343 315.098245 
L 274.005101 315.197298 
L 274.200859 315.367568 
L 274.298738 315.266244 
L 274.494496 315.464503 
L 274.592375 315.305599 
L 274.690254 315.375531 
L 274.886012 315.141327 
L 274.983891 315.252212 
L 275.08177 315.194644 
L 275.473287 315.457815 
L 276.15844 315.258232 
L 276.745714 315.371678 
L 277.13723 315.169994 
L 277.724504 315.448993 
L 278.11602 315.064912 
L 278.311778 315.31496 
L 278.409657 315.289516 
L 278.507536 315.38003 
L 278.605415 315.232986 
L 278.801173 315.405501 
L 279.192689 315.143934 
L 279.486326 315.35555 
L 280.0736 315.25246 
L 280.269358 315.151651 
L 280.660874 315.420468 
L 281.05239 315.28453 
L 281.346027 315.020965 
L 281.737543 315.391102 
L 281.933302 315.348822 
L 282.031181 315.431902 
L 282.422697 315.02592 
L 282.716334 315.32042 
L 282.814213 315.425738 
L 283.009971 315.33682 
L 283.10785 315.419036 
L 283.401487 315.10456 
L 283.499366 315.088378 
L 283.890882 315.386469 
L 283.988761 315.315625 
L 284.184519 315.42824 
L 284.380277 315.189253 
L 284.576035 315.089835 
L 284.673914 315.125723 
L 284.869672 315.378566 
L 285.261188 315.436979 
L 285.359067 315.345357 
L 285.456946 314.772523 
L 285.750583 315.186418 
L 285.848462 315.432354 
L 285.946341 315.379196 
L 286.04422 315.422719 
L 286.239978 315.295108 
L 286.337857 315.496054 
L 286.729373 315.059273 
L 287.02301 315.419354 
L 287.120889 315.425633 
L 287.316647 315.322106 
L 287.414526 315.448715 
L 287.708163 315.064292 
L 287.806042 315.076143 
L 288.099679 315.380845 
L 288.393317 315.345037 
L 288.491196 315.449939 
L 288.882712 315.100356 
L 289.07847 315.509559 
L 289.176349 315.404303 
L 289.469986 315.256559 
L 289.567865 315.453543 
L 289.665744 315.378344 
L 289.861502 315.111237 
L 289.959381 315.07851 
L 290.155139 315.524408 
L 290.448776 315.254343 
L 290.644534 315.543863 
L 290.938171 315.10425 
L 291.03605 315.077599 
L 291.231808 315.518918 
L 291.525445 315.194932 
L 291.721203 315.557131 
L 292.01484 314.996999 
L 292.112719 315.026581 
L 292.308477 315.426236 
L 292.602114 315.224396 
L 292.797872 315.525131 
L 292.99363 315.192484 
L 293.189388 315.039289 
L 293.385146 315.408641 
L 293.678783 315.139732 
L 293.874541 315.577452 
L 294.266057 314.902328 
L 294.461815 315.45484 
L 294.657573 315.176158 
L 294.755452 315.106113 
L 294.951211 315.576164 
L 295.342727 314.96869 
L 295.538485 315.396954 
L 295.832122 315.041185 
L 296.02788 315.585415 
L 296.321517 314.966514 
L 296.419396 314.965253 
L 296.517275 315.487662 
L 296.908791 314.981918 
L 297.104549 315.536438 
L 297.398186 315.033731 
L 297.496065 315.120108 
L 297.691823 315.462452 
L 297.98546 315.027118 
L 298.181218 315.596489 
L 298.474855 315.043416 
L 298.572734 315.095578 
L 298.670613 315.51039 
L 298.768492 315.451991 
L 298.96425 315.115787 
L 299.062129 314.952032 
L 299.257887 315.692146 
L 299.453645 315.245135 
L 299.551524 315.034776 
L 299.649403 315.121282 
L 299.747282 315.544996 
L 299.845161 315.454928 
L 300.040919 315.025434 
L 300.138798 314.912468 
L 300.334556 315.62218 
L 300.628193 314.55721 
L 300.92183 315.321794 
L 301.215468 314.951501 
L 301.411226 315.61929 
L 301.606984 315.228202 
L 301.704863 315.028445 
L 301.802742 315.105514 
L 301.900621 315.515941 
L 302.096379 315.126714 
L 302.292137 315.030512 
L 302.487895 315.617121 
L 302.781532 314.992674 
L 302.879411 315.140106 
L 302.97729 315.524439 
L 303.075169 315.437961 
L 303.270927 315.049001 
L 303.368806 315.021293 
L 303.564564 315.620521 
L 303.858201 314.920476 
L 304.053959 315.572534 
L 304.347596 314.952951 
L 304.445475 315.016275 
L 304.641233 315.5849 
L 304.93487 314.924625 
L 305.130628 315.555642 
L 305.424265 314.97844 
L 305.522144 315.104841 
L 305.717902 315.564603 
L 306.011539 314.911736 
L 306.207297 315.506289 
L 306.500934 315.003002 
L 306.598813 315.147183 
L 306.794571 315.619622 
L 307.088208 314.896392 
L 307.283966 315.63118 
L 307.577603 314.959861 
L 307.675483 315.117504 
L 307.871241 315.611127 
L 308.164878 314.904868 
L 308.360636 315.620259 
L 308.654273 314.882854 
L 308.752152 315.073984 
L 308.850031 315.618323 
L 308.94791 315.581201 
L 309.241547 314.942176 
L 309.437305 315.702399 
L 309.730942 314.893173 
L 310.024579 315.586436 
L 310.318216 315.04062 
L 310.513974 315.654926 
L 310.807611 314.884485 
L 311.101248 315.589729 
L 311.394885 315.04467 
L 311.590643 315.671435 
L 311.88428 314.917171 
L 312.080038 315.635249 
L 312.177917 315.570678 
L 312.373675 315.025531 
L 312.471554 314.982129 
L 312.667312 315.716329 
L 312.960949 314.880362 
L 313.156707 315.651305 
L 313.254586 315.608305 
L 313.450344 314.991139 
L 313.548223 315.028713 
L 313.743981 315.643735 
L 314.037618 314.786116 
L 314.233377 315.590284 
L 314.331256 315.494806 
L 314.527014 314.887932 
L 314.624893 314.994222 
L 314.820651 315.629428 
L 315.114288 314.934684 
L 315.310046 315.578678 
L 315.407925 315.512805 
L 315.603683 314.911871 
L 315.799441 315.443329 
L 315.995199 315.163662 
L 316.190957 314.823998 
L 316.386715 315.5751 
L 316.484594 315.513984 
L 316.680352 314.857203 
L 316.973989 315.633847 
L 317.267626 314.418825 
L 317.463384 314.618294 
L 318.148537 310.863156 
L 318.442174 308.374646 
L 318.637932 306.959189 
L 319.616722 294.969881 
L 319.81248 292.568595 
L 321.280666 269.123623 
L 321.672182 260.709379 
L 322.063698 255.022971 
L 322.650972 243.028997 
L 322.944609 239.248519 
L 323.531883 226.309199 
L 324.119157 217.38774 
L 324.80431 204.848561 
L 326.468253 182.81444 
L 327.349165 175.573227 
L 327.936439 173.118714 
L 328.230076 172.914346 
L 328.719471 172.887881 
L 329.404624 172.788767 
L 329.600382 172.676225 
L 329.79614 172.083507 
L 330.187656 169.387707 
L 331.068567 158.632019 
L 333.417664 121.267478 
L 334.200696 105.250408 
L 334.983728 91.134165 
L 335.375244 83.61242 
L 335.668881 80.324568 
L 336.354034 67.334838 
L 336.549792 64.857223 
L 337.039187 56.127986 
L 337.234945 54.020095 
L 337.626461 47.98282 
L 337.920098 44.540444 
L 338.213735 41.121507 
L 339.290404 32.080611 
L 339.486162 31.655514 
L 339.877679 30.068604 
L 339.975558 30.125499 
L 340.073437 30.020049 
L 340.269195 29.454545 
L 340.367074 29.483612 
L 340.562832 29.993239 
L 340.75859 29.761804 
L 340.954348 30.03548 
L 341.150106 30.389372 
L 341.345864 29.945725 
L 341.443743 30.011835 
L 341.639501 30.503049 
L 341.933138 30.150134 
L 342.128896 30.618966 
L 342.324654 30.344779 
L 342.520412 30.2433 
L 342.71617 30.693484 
L 342.911928 30.309041 
L 343.009807 30.256604 
L 343.205565 30.710735 
L 343.303444 30.648885 
L 343.499202 30.104051 
L 343.69496 30.73544 
L 343.792839 30.7408 
L 344.086476 30.276143 
L 344.282234 30.713874 
L 344.477992 30.478748 
L 344.575871 30.231064 
L 344.869508 30.750913 
L 345.065266 30.355509 
L 345.163145 30.32387 
L 345.358903 30.718236 
L 345.750419 30.403794 
L 345.946177 30.784643 
L 346.141935 30.344343 
L 346.239814 30.348733 
L 346.435573 30.722145 
L 346.72921 30.223833 
L 346.827089 30.341793 
L 347.022847 30.698526 
L 347.316484 30.281198 
L 347.512242 30.741977 
L 347.805879 30.237414 
L 347.903758 30.357938 
L 348.001637 30.699519 
L 348.099516 30.66171 
L 348.295274 30.387381 
L 348.393153 30.284763 
L 348.588911 30.665246 
L 348.882548 30.267572 
L 349.078306 30.702234 
L 349.176185 30.66417 
L 349.469822 30.36401 
L 349.66558 30.68635 
L 349.763459 30.603735 
L 349.959217 30.273361 
L 350.252854 30.71319 
L 350.448612 30.3413 
L 350.546491 30.350411 
L 350.742249 30.715924 
L 351.035886 30.331691 
L 351.231644 30.749379 
L 351.329523 30.650313 
L 351.525281 30.426618 
L 351.62316 30.360842 
L 351.818918 30.747863 
L 352.112555 30.265589 
L 352.308313 30.720156 
L 352.406192 30.653661 
L 352.69983 30.392149 
L 352.895588 30.692148 
L 353.189225 30.253887 
L 353.384983 30.684866 
L 353.580741 30.522402 
L 353.67862 30.309258 
L 353.972257 30.682589 
L 354.265894 30.295391 
L 354.461652 30.731909 
L 354.755289 30.364733 
L 354.853168 30.498533 
L 355.048926 30.713622 
L 355.342563 30.272899 
L 355.538321 30.687897 
L 355.734079 30.522443 
L 355.831958 30.308703 
L 356.125595 30.662957 
L 356.223474 30.614424 
L 356.419232 30.232579 
L 356.61499 30.660522 
L 356.810748 30.525755 
L 356.908627 30.263194 
L 357.104385 30.683054 
L 357.202264 30.56784 
L 357.300143 30.620774 
L 357.495901 30.277459 
L 357.691659 30.610729 
L 357.789538 30.607773 
L 357.985296 30.266976 
L 358.181054 30.657604 
L 358.278933 30.5797 
L 358.376812 30.693624 
L 358.474691 30.307399 
L 358.670449 30.898803 
L 359.061965 30.276644 
L 359.257724 30.653778 
L 359.64924 30.351645 
L 359.747119 30.657824 
L 360.138635 30.24618 
L 360.334393 30.592212 
L 360.530151 30.597258 
L 360.62803 30.266374 
L 360.725909 30.345935 
L 360.823788 30.67215 
L 360.921667 30.510737 
L 361.019546 30.657032 
L 361.215304 30.203821 
L 361.313183 30.62616 
L 361.508941 30.600411 
L 361.60682 30.676747 
L 361.704699 30.243209 
L 361.900457 30.653224 
L 361.998336 30.496221 
L 362.096215 30.656329 
L 362.291973 30.252046 
L 362.389852 30.61635 
L 362.487731 30.498955 
L 362.683489 30.542223 
L 362.781368 30.235851 
L 362.977126 30.584471 
L 363.075005 30.494943 
L 363.172884 30.565406 
L 363.368642 30.30012 
L 363.466521 30.565601 
L 363.5644 30.501379 
L 363.662279 30.609607 
L 363.760158 30.509497 
L 363.858037 30.186723 
L 364.053795 30.552373 
L 364.249553 30.556715 
L 364.445311 30.256358 
L 364.54319 30.539224 
L 364.641069 30.495995 
L 364.836827 30.537088 
L 364.934706 30.247102 
L 365.130464 30.583213 
L 365.228343 30.493365 
L 365.326222 30.564187 
L 365.52198 30.245002 
L 365.61986 30.560883 
L 365.717739 30.45888 
L 365.913497 30.528673 
L 366.011376 30.250016 
L 366.207134 30.551539 
L 366.305013 30.482642 
L 366.402892 30.549865 
L 366.500771 30.333431 
L 366.59865 30.388218 
L 366.696529 30.617835 
L 366.794408 30.479835 
L 366.892287 30.601352 
L 367.088045 30.29693 
L 367.283803 30.549086 
L 367.479561 30.59715 
L 367.57744 30.31289 
L 367.968956 30.550078 
L 368.164714 30.389385 
L 368.360472 30.596258 
L 368.55623 30.587646 
L 368.654109 30.346267 
L 369.045625 30.508789 
L 369.241383 30.405077 
L 369.437141 30.626078 
L 369.632899 30.560591 
L 369.828657 30.431897 
L 369.926536 30.539416 
L 370.122294 30.521359 
L 370.220173 30.528989 
L 370.318052 30.363805 
L 370.51381 30.649521 
L 370.905326 30.414096 
L 371.003205 30.552779 
L 371.101084 30.385417 
L 371.296842 30.487559 
L 371.394721 30.375274 
L 371.590479 30.593645 
L 371.786237 30.526618 
L 371.884116 30.348057 
L 372.079875 30.512195 
L 372.373512 30.419781 
L 372.471391 30.42972 
L 372.667149 30.633443 
L 373.54806 30.433208 
L 373.743818 30.661311 
L 373.841697 30.902242 
L 374.135334 30.392663 
L 374.233213 30.549464 
L 374.428971 30.460587 
L 374.52685 30.512937 
L 374.624729 30.344828 
L 374.820487 30.540983 
L 375.016245 30.475864 
L 375.114124 30.343347 
L 375.309882 30.464388 
L 375.407761 30.383688 
L 375.603519 30.423086 
L 376.875946 30.504092 
L 377.071704 30.577868 
L 377.365341 30.415082 
L 377.561099 30.461664 
L 377.658978 30.368425 
L 378.050494 30.510232 
L 378.344131 30.348358 
L 378.442011 30.36869 
L 378.637769 30.552893 
L 379.029285 30.559831 
L 379.51868 30.379468 
L 379.714438 30.504077 
L 380.008075 30.520535 
L 380.203833 30.522407 
L 380.595349 30.370806 
L 380.888986 30.559161 
L 381.378381 30.497707 
L 381.47626 30.326001 
L 382.063534 30.589526 
L 382.357171 30.55707 
L 382.552929 30.352749 
L 382.650808 30.425652 
L 382.748687 30.341938 
L 382.944445 30.521205 
L 383.43384 30.55 
L 383.629598 30.361067 
L 384.510509 30.518357 
L 384.999905 30.496639 
L 385.293542 30.589394 
L 385.4893 30.466032 
L 385.685058 30.508748 
L 385.880816 30.462946 
L 385.978695 30.40942 
L 386.174453 30.636499 
L 386.272332 30.562583 
L 386.370211 30.654163 
L 386.565969 30.496047 
L 386.663848 30.566348 
L 386.859606 30.446176 
L 386.957485 30.48105 
L 387.055364 30.358889 
L 387.251122 30.571303 
L 387.44688 30.610355 
L 387.544759 30.401743 
L 387.740517 30.488128 
L 388.132033 30.434966 
L 388.229912 30.625858 
L 388.42567 30.566889 
L 388.523549 30.557856 
L 388.621428 30.383478 
L 388.817186 30.509734 
L 389.012944 30.493902 
L 389.208702 30.429922 
L 389.306581 30.978866 
L 389.502339 30.613419 
L 389.600218 30.665959 
L 389.698097 30.43728 
L 389.893855 30.579476 
L 390.187492 30.380925 
L 390.285371 30.350722 
L 390.38325 30.602656 
L 390.579008 30.548475 
L 390.676887 30.634745 
L 390.774766 30.380317 
L 390.970524 30.614085 
L 391.068403 30.512648 
L 391.166282 30.58815 
L 391.362041 30.34542 
L 391.45992 30.653145 
L 391.557799 30.471147 
L 391.753557 30.662593 
L 391.851436 30.382727 
L 391.949315 30.70776 
L 392.145073 30.517246 
L 392.242952 30.630858 
L 392.340831 30.363736 
L 392.43871 30.419736 
L 392.536589 30.663588 
L 392.732347 30.539883 
L 392.830226 30.63226 
L 392.928105 30.331045 
L 393.123863 30.643196 
L 393.4175 30.388112 
L 393.515379 30.397787 
L 393.613258 30.651177 
L 393.809016 30.538944 
L 393.906895 30.625345 
L 394.004774 30.34534 
L 394.200532 30.668629 
L 394.298411 30.437532 
L 394.39629 30.538139 
L 394.592048 30.296939 
L 394.689927 30.655138 
L 394.885685 30.528441 
L 394.983564 30.666573 
L 395.081443 30.302837 
L 395.277201 30.618467 
L 395.37508 30.44444 
L 395.472959 30.589743 
L 395.668717 30.313146 
L 395.766596 30.663471 
L 395.962354 30.593441 
L 396.060233 30.658382 
L 396.158112 30.368034 
L 396.35387 30.639783 
L 396.647507 30.341163 
L 396.745386 30.402191 
L 396.941144 30.647708 
L 397.136902 30.594509 
L 397.234781 30.387507 
L 397.430539 30.653392 
L 397.822056 30.33021 
L 398.017814 30.631463 
L 398.311451 30.349944 
L 398.507209 30.654868 
L 398.800846 30.293561 
L 398.898725 30.336839 
L 398.996604 30.687747 
L 399.094483 30.647732 
L 399.192362 30.680099 
L 399.38812 30.336478 
L 399.583878 30.600516 
L 399.779636 30.548895 
L 399.877515 30.282943 
L 400.171152 30.663276 
L 400.36691 30.502252 
L 400.464789 30.401415 
L 400.660547 30.66307 
L 400.954184 30.252072 
L 401.052063 30.389333 
L 401.247821 30.650041 
L 401.443579 30.559215 
L 401.541458 30.349114 
L 401.737216 30.624605 
L 402.128732 30.319993 
L 402.32449 30.648477 
L 402.520248 30.446434 
L 402.618127 30.321364 
L 402.813885 30.682724 
L 403.107522 30.202076 
L 403.499038 30.660076 
L 403.694796 30.346534 
L 403.890554 30.639983 
L 403.988433 30.620018 
L 404.184192 30.187802 
L 404.282071 30.354907 
L 404.37995 30.542078 
L 404.477829 31.067282 
L 404.771466 30.48565 
L 404.967224 30.732954 
L 405.065103 30.66356 
L 405.260861 30.235014 
L 405.554498 30.671284 
L 405.652377 30.577444 
L 405.848135 30.366045 
L 406.043893 30.690454 
L 406.239651 30.407498 
L 406.33753 30.196958 
L 406.729046 30.637816 
L 406.924804 30.381368 
L 407.120562 30.694754 
L 407.218441 30.646152 
L 407.414199 30.150273 
L 407.707836 30.694717 
L 407.805715 30.640018 
L 407.903594 30.293838 
L 408.001473 30.374877 
L 408.197231 30.734155 
L 408.29511 30.651832 
L 408.490868 30.210241 
L 408.784505 30.75562 
L 408.980263 30.289112 
L 409.078142 30.353967 
L 409.2739 30.71126 
L 409.371779 30.652389 
L 409.567537 30.223191 
L 409.861174 30.734318 
L 410.154811 30.338052 
L 410.350569 30.721581 
L 410.448448 30.625279 
L 410.644207 30.185683 
L 410.937844 30.756249 
L 411.231481 30.347723 
L 411.427239 30.728405 
L 411.525118 30.69962 
L 411.720876 30.195493 
L 411.916634 30.618905 
L 412.014513 30.808308 
L 412.210271 30.219795 
L 412.601787 30.675659 
L 412.797545 30.255906 
L 413.091182 30.773708 
L 413.28694 30.273579 
L 413.580577 30.747888 
L 413.678456 30.642972 
L 413.874214 30.252687 
L 414.069972 30.660337 
L 414.167851 30.757005 
L 414.363609 30.236449 
L 414.559367 30.586343 
L 414.657246 30.830945 
L 414.950883 30.389185 
L 415.24452 31.519957 
L 415.440278 31.563582 
L 416.125431 35.805415 
L 416.419068 38.639532 
L 416.614826 40.191764 
L 417.985133 58.13262 
L 418.474528 65.503819 
L 420.23635 97.118474 
L 420.823624 107.789922 
L 421.21514 115.022843 
L 421.900293 127.34512 
L 424.151511 160.939681 
L 424.934543 168.264003 
L 425.619696 172.047413 
L 425.913333 172.735812 
L 426.109091 172.840105 
L 426.109091 172.840105 
" clip-path="url(#p0dd9ccb672)" style="fill: none; stroke: #1f77b4; stroke-width: 1.5; stroke-linecap: square"/>
   </g>
   <g id="patch_3">
    <path d="M 15.12 330.48 
L 15.12 15.12 
" style="fill: none; stroke: #000000; stroke-width: 0.8; stroke-linejoin: miter; stroke-linecap: square"/>
   </g>
   <g id="patch_4">
    <path d="M 445.68 330.48 
L 445.68 15.12 
" style="fill: none; stroke: #000000; stroke-width: 0.8; stroke-linejoin: miter; stroke-linecap: square"/>
   </g>
   <g id="patch_5">
    <path d="M 15.12 330.48 
L 445.68 330.48 
" style="fill: none; stroke: #000000; stroke-width: 0.8; stroke-linejoin: miter; stroke-linecap: square"/>
   </g>
   <g id="patch_6">
    <path d="M 15.12 15.12 
L 445.68 15.12 
" style="fill: none; stroke: #000000; stroke-width: 0.8; stroke-linejoin: miter; stroke-linecap: square"/>
   </g>
  </g>
 </g>
 <defs>
  <clipPath id="p0dd9ccb672">
   <rect x="15.12" y="15.12" width="430.56" height="315.36"/>
  </clipPath>
 </defs>
</svg>
